<?xml version="1.0" standalone="no"?> 

<svg version="1.0" xmlns=" `http://www.w3.org/2000/svg` " 
 width="677.000000pt" height="555.000000pt" viewBox="0 0 677.000000 555.000000" 
 preserveAspectRatio="xMidYMid meet"> 
 
 <g transform="translate(0.000000,555.000000) scale(0.100000,-0.100000)" 
fill="#1D293D" stroke="none">
 <path d="M0 2775 l0 -2775 3385 0 3385 0 0 2775 0 2775 -3385 0 -3385 0 0 
 -2775z m5293 1383 c-2 -5 -3 -377 -3 -828 l0 -820 -280 0 -280 0 0 830 0 830 
 283 -2 c155 -2 281 -6 280 -10z m-3408 -50 c22 -29 141 -181 265 -338 220 
 -278 941 -1202 969 -1241 13 -19 4 -19 -529 -19 l-542 0 33 43 c19 23 62 77 
 96 120 35 44 63 82 63 85 0 4 -53 72 -117 152 -102 127 -640 812 -886 1127 
 -48 61 -87 114 -87 117 0 3 157 6 348 6 l348 0 39 -52z m2158 40 c-6 -7 -65 
 -84 -132 -171 -67 -87 -276 -350 -465 -585 -188 -235 -349 -438 -359 -452 -15 
 -21 -19 -22 -31 -10 -38 42 -336 421 -336 428 0 5 62 85 138 179 75 94 218 
 272 316 397 l179 226 350 0 c278 0 347 -3 340 -12z m-1535 -1946 c-1 -5 -120 
 -156 -263 -335 l-260 -326 -352 0 -352 -1 252 319 252 319 145 7 c365 19 420 
 22 498 23 46 1 82 -2 80 -6z m976 -144 c38 -51 137 -180 220 -286 83 -107 159 
 -204 169 -217 l17 -23 -334 -1 -333 -2 -40 48 c-29 36 -349 446 -436 561 -7 9 
 60 12 329 12 l339 0 69 -92z m666 35 c3 -31 13 -60 25 -73 42 -46 63 -50 262 
 -50 159 0 193 3 223 18 41 20 70 71 70 125 l0 37 280 0 280 0 0 -67 c-1 -203 
 -115 -396 -287 -485 -119 -62 -131 -63 -523 -63 l-354 0 -222 290 c-122 160 
 -223 298 -223 308 -1 16 15 17 232 15 l232 -3 5 -52z"/> 
 </g> 
</svg>